<?xml version="1.0" encoding="UTF-8"?>
<!DOCTYPE svg PUBLIC "-//W3C//DTD SVG 1.1//EN" "http://www.w3.org/Graphics/SVG/1.1/DTD/svg11.dtd">
<!-- Creator: CorelDRAW (Versão de avaliação) -->
<svg xmlns="http://www.w3.org/2000/svg" xml:space="preserve" width="24.5221mm" height="19.7947mm" version="1.1" style="shape-rendering:geometricPrecision; text-rendering:geometricPrecision; image-rendering:optimizeQuality; fill-rule:evenodd; clip-rule:evenodd"
viewBox="0 0 45.56 36.77"
 xmlns:xlink="http://www.w3.org/1999/xlink"
 xmlns:xodm="http://www.corel.com/coreldraw/odm/2003">
 <defs>
  <style type="text/css">
   <![CDATA[
    .fil0 {fill:black}
   ]]>
  </style>
 </defs>
 <g id="Camada_x0020_1">
  <metadata id="CorelCorpID_0Corel-Layer"/>
  <g id="_3012790669648">
   <path class="fil0" d="M24.49 0.98c15.16,4.06 24.15,19.64 20.09,34.8 -0.09,0.34 -0.19,0.67 -0.29,1l-44.29 0 0 -31.02c6.75,-5.09 15.69,-7.14 24.49,-4.78z"/>
   <path class="fil0" d="M23.83 3.43c13.4,3.59 21.51,17.07 18.59,30.49l-42.42 -11.37 0 -13.51c6.28,-5.54 15.13,-7.94 23.83,-5.61zm17.79 33.35l-41.63 0 0 -11.66 41.78 11.2c-0.05,0.16 -0.1,0.31 -0.16,0.47z"/>
   <path class="fil0" d="M19.61 19.2c5.09,1.36 8.11,6.6 6.75,11.69 -0.7,2.61 -2.41,4.67 -4.6,5.88l-9.24 0c-3.75,-2.07 -5.76,-6.5 -4.6,-10.82 1.36,-5.09 6.6,-8.11 11.69,-6.75z"/>
   <path class="fil0" d="M18.9 21.82c3.64,0.98 5.81,4.72 4.83,8.37 -0.98,3.64 -4.72,5.81 -8.37,4.83 -3.64,-0.98 -5.81,-4.72 -4.83,-8.37 0.98,-3.64 4.72,-5.81 8.37,-4.83z"/>
  </g>
 </g>
</svg>
